<svg width="20" height="20" viewBox="0 0 20 20" fill="none" xmlns="http://www.w3.org/2000/svg">
<circle cx="10" cy="10" r="10" fill="#F72464"/>
<path d="M13.1348 7.34961C13.1348 7.88477 12.9727 8.33984 12.6484 8.71484C12.3242 9.08984 11.8691 9.34766 11.2832 9.48828V9.52344C11.9746 9.60938 12.498 9.82031 12.8535 10.1562C13.209 10.4883 13.3867 10.9375 13.3867 11.5039C13.3867 12.3281 13.0879 12.9707 12.4902 13.4316C11.8926 13.8887 11.0391 14.1172 9.92969 14.1172C9 14.1172 8.17578 13.9629 7.45703 13.6543V12.1133C7.78906 12.2812 8.1543 12.418 8.55273 12.5234C8.95117 12.6289 9.3457 12.6816 9.73633 12.6816C10.334 12.6816 10.7754 12.5801 11.0605 12.377C11.3457 12.1738 11.4883 11.8477 11.4883 11.3984C11.4883 10.9961 11.3242 10.7109 10.9961 10.543C10.668 10.375 10.1445 10.291 9.42578 10.291H8.77539V8.90234H9.4375C10.1016 8.90234 10.5859 8.81641 10.8906 8.64453C11.1992 8.46875 11.3535 8.16992 11.3535 7.74805C11.3535 7.09961 10.9473 6.77539 10.1348 6.77539C9.85352 6.77539 9.56641 6.82227 9.27344 6.91602C8.98438 7.00977 8.66211 7.17188 8.30664 7.40234L7.46875 6.1543C8.25 5.5918 9.18164 5.31055 10.2637 5.31055C11.1504 5.31055 11.8496 5.49023 12.3613 5.84961C12.877 6.20898 13.1348 6.70898 13.1348 7.34961Z" fill="white"/>
</svg>
